<svg width="53" height="81" viewBox="0 0 53 81" fill="none" xmlns="http://www.w3.org/2000/svg">
<path d="M18.9343 81C19.2187 79.0158 19.5032 77.0311 19.7876 75.0459C20.3892 70.8836 20.9927 66.7208 21.5978 62.5575C22.192 58.4422 22.7701 54.3225 23.3882 50.2115C23.4559 49.7637 23.3576 49.5218 23.0785 49.2238C22.293 48.3843 21.5221 47.5261 20.7924 46.6319C20.0082 45.67 20.0175 44.6059 20.4176 43.4151C22.3209 37.7533 24.1737 32.0728 26.0424 26.3981C26.1301 26.1303 26.1952 25.8552 26.3215 25.4017C25.104 25.622 24.0022 25.8063 22.9083 26.0251C18.3429 26.9366 13.7707 27.2635 9.20656 26.0856C6.17353 25.3037 3.44753 23.8854 1.515 21.0963C-0.561066 18.1012 -0.502581 14.1501 1.68513 11.5741C2.25266 10.9045 2.99563 10.4092 3.70936 9.78856C8.90884 18.1041 16.2362 21.9646 25.124 22.8991C23.5197 21.4721 21.8996 20.1891 20.4508 18.7074C17.6597 15.8492 15.6753 12.4193 14.9058 8.28816C14.5589 6.43066 14.3595 4.53284 15.1025 2.70269C15.2281 2.39786 15.3832 2.10827 15.565 1.83874C16.1365 0.993503 16.8489 0.807753 17.7155 1.30309C18.1834 1.56947 18.622 1.89922 19.0659 2.21312C20.5452 3.26282 22.0936 3.3305 23.6713 2.53854C24.7345 2.00577 25.7633 1.39956 26.808 0.82935C27.0645 0.685358 27.3223 0.551448 27.5842 0.423295C29.0462 -0.296667 29.6097 -0.276512 29.8144 1.90929C29.8941 2.77325 29.6895 3.75096 29.3559 4.54868C28.7684 5.95836 28.0135 7.29173 27.2692 8.6179C26.2697 10.3962 25.4469 12.2264 25.3393 14.3546C25.2064 17.1005 26.0982 19.4202 27.7742 21.426C28.1764 21.9375 28.6131 22.4159 29.0807 22.8573C29.4914 23.2216 29.5353 23.5902 29.417 24.1057C28.7817 26.892 28.169 29.684 27.5562 32.4731C27.531 32.584 27.5177 32.6978 27.4778 32.9296L30.0231 31.314C29.8902 33.9174 29.7639 36.3364 29.631 38.9456C31.0146 37.2897 32.038 35.533 33.0534 33.5991C34.4703 35.7202 35.2704 38.0744 36.1104 40.5785C37.0328 37.9866 37.1737 35.5387 36.2008 33.0664L36.351 32.8921L38.9294 34.43C38.6184 32.4846 37.7133 30.931 36.5078 29.4147L38.1027 29.5155C36.3204 26.8301 34.1154 24.8948 31.7004 23.0992C32.0832 22.5664 32.4726 22.0582 32.8315 21.5254C34.6191 18.863 35.7794 15.9097 36.1702 12.6425C36.2725 11.7929 36.1343 10.8714 35.9349 10.029C35.7077 9.07004 35.0551 8.47535 34.1207 8.24208C31.7137 7.64163 31.1714 6.27946 32.3769 3.94823C33.6369 1.50899 36.973 -0.266432 39.3082 0.2577C40.9244 0.619121 41.8641 1.87617 41.9811 3.78551C42.1592 6.71864 41.3564 9.42282 40.305 12.0521C38.9228 15.5079 37.3637 18.8658 35.1069 21.7788C35.0631 21.8548 35.0266 21.9353 34.9979 22.0193C37.0102 21.8119 38.8523 21.102 40.6599 20.2986C43.1188 19.2071 45.2972 17.6995 46.8164 15.2588C47.2975 14.4856 47.7042 13.6591 48.176 12.8772C48.7914 11.8563 49.6035 11.0989 50.7665 10.9535C51.019 10.9218 51.3885 11.0168 51.5467 11.2083C52.8984 12.8498 53.2745 14.7721 52.8106 16.8946C52.1182 20.0423 50.2189 21.9948 47.4862 23.0661C44.6433 24.1806 41.7006 24.3548 38.7141 24.0208C37.5325 23.8883 36.3536 23.7328 35.2185 23.5888C36.3031 24.6687 37.4661 25.7328 38.5307 26.9006C41.5039 30.1707 43.8976 33.8483 44.9317 38.3826C45.6481 41.523 45.5962 44.5973 43.6916 47.2986C41.9824 49.7292 39.6033 51.0553 36.8985 51.7292C34.3014 52.3754 31.604 52.3867 29.0023 51.7623C28.8403 51.7362 28.6769 51.7213 28.5132 51.7177C27.6907 56.8634 26.4694 61.9249 24.8621 66.8484C23.2513 71.737 21.3706 76.4916 18.9343 81Z" fill="#25282D"/>
</svg>
