<svg width="35" height="35" viewBox="0 0 35 35" fill="none" xmlns="http://www.w3.org/2000/svg">
<path d="M25.5258 0H9.47418C4.25003 0 0 4.25003 0 9.47418V25.5261C0 30.75 4.25003 35 9.47418 35H25.5261C30.75 35 35 30.75 35 25.5261V9.47418C35 4.25003 30.75 0 25.5258 0V0ZM32.9482 25.5261C32.9482 29.6186 29.6186 32.9482 25.5258 32.9482H9.47418C5.38143 32.9482 2.05185 29.6186 2.05185 25.5261V9.47418C2.05185 5.38143 5.38143 2.05185 9.47418 2.05185H25.5261C29.6186 2.05185 32.9482 5.38143 32.9482 9.47418V25.5261Z" fill="#F4F0EB"/>
<path d="M17.5 7.92993C12.223 7.92993 7.92993 12.223 7.92993 17.5C7.92993 22.777 12.223 27.07 17.5 27.07C22.777 27.07 27.07 22.777 27.07 17.5C27.07 12.223 22.777 7.92993 17.5 7.92993ZM17.5 25.0182C13.3546 25.0182 9.98178 21.6456 9.98178 17.5C9.98178 13.3546 13.3546 9.98178 17.5 9.98178C21.6456 9.98178 25.0182 13.3546 25.0182 17.5C25.0182 21.6456 21.6456 25.0182 17.5 25.0182Z" fill="#F4F0EB"/>
<path d="M27.2989 4.53125C25.7395 4.53125 24.4711 5.7999 24.4711 7.35909C24.4711 8.91853 25.7395 10.1872 27.2989 10.1872C28.8584 10.1872 30.127 8.91853 30.127 7.35909C30.127 5.79964 28.8584 4.53125 27.2989 4.53125ZM27.2989 8.13507C26.8711 8.13507 26.5229 7.78687 26.5229 7.35909C26.5229 6.93104 26.8711 6.5831 27.2989 6.5831C27.727 6.5831 28.0752 6.93104 28.0752 7.35909C28.0752 7.78687 27.727 8.13507 27.2989 8.13507Z" fill="#F4F0EB"/>
</svg>
