<svg width="35" height="35" viewBox="0 0 35 35" fill="none" xmlns="http://www.w3.org/2000/svg">
<g clip-path="url(#clip0)">
<path d="M13.3176 31.9725C7.47611 31.9725 2.85918 30.9519 0.650322 29.1729L0.60733 29.1382L0.568344 29.0992C0.0436327 28.5743 -0.128334 27.8856 0.0970385 27.21L0.1176 27.1539C0.391037 26.4701 1.06101 26.0097 1.78706 26.0054C3.28136 25.9795 4.58873 25.8014 5.77514 25.4556C3.88271 24.5755 2.56812 23.0516 1.786 20.8459C1.52297 20.158 1.74995 19.3954 2.3561 18.9407C2.50564 18.8282 2.67467 18.7433 2.85358 18.6865C1.80202 17.4725 1.02523 16.0912 0.590241 14.6303L0.576622 14.5849L0.567276 14.5384C0.419609 13.7996 0.749924 13.0399 1.35528 12.7127C1.60922 12.567 1.88506 12.4914 2.16197 12.485C1.86343 11.842 1.64634 11.1819 1.51763 10.5178C1.16035 8.67741 1.45515 6.83251 2.39349 5.03433L2.61058 4.60015C2.78442 4.25274 3.1166 4.00868 3.49952 3.94646C3.88244 3.88451 4.27497 4.01108 4.54921 4.28532L4.94468 4.68132C8.06892 7.9567 10.8674 9.51081 15.7057 10.5741C15.9217 8.71693 16.7247 6.99059 18.02 5.63194C19.5616 4.01535 21.6201 3.10826 23.8164 3.07728H23.8308C25.4333 3.07728 27.421 3.99212 28.6232 4.63726C29.6545 4.29974 30.8969 3.77716 32.1862 3.22468C32.7894 2.94163 33.5331 3.07114 34.0073 3.54538C34.4722 4.01028 34.6012 4.66583 34.3544 5.30297C34.2607 5.56385 34.1544 5.81993 34.0361 6.07041C34.2126 6.15132 34.3742 6.26106 34.5106 6.39752C34.9232 6.81008 35.0952 7.45575 34.9486 8.04268L34.9328 8.09849C34.4388 9.69052 33.4898 10.9872 32.2348 11.8011C32.0251 22.9632 23.6196 31.9725 13.3176 31.9725ZM2.61859 28.0298C4.70008 29.2074 8.66679 29.9198 13.3176 29.9198C17.789 29.9198 22.0086 28.0001 25.1988 24.5144C28.4152 21 30.1864 16.3331 30.1864 11.3733V11.3175C30.1864 10.8684 30.4336 10.4585 30.8315 10.2475C31.6387 9.82002 32.2924 9.09184 32.7175 8.16071C32.2791 8.22987 31.8334 8.0539 31.5602 7.687C31.2427 7.26055 31.2393 6.68457 31.5514 6.25439C31.7199 6.02207 31.8727 5.78041 32.0089 5.53047C30.8956 5.99804 29.8384 6.41728 28.9207 6.69579C28.5871 6.79672 28.2154 6.7572 27.9108 6.58711C26.2768 5.67681 24.755 5.1326 23.8375 5.12993C20.4518 5.18173 17.699 8.0814 17.699 11.5971C17.699 11.9605 17.5378 12.3013 17.2571 12.5322C16.9762 12.7629 16.6109 12.8553 16.2542 12.7848C10.6754 11.6858 7.36957 10.0377 3.93184 6.5831C3.43917 7.76364 3.30459 8.95271 3.53236 10.1268C3.76334 11.3162 4.37778 12.5079 5.30944 13.5731C5.66352 13.9774 5.71052 14.5558 5.4264 15.0121C5.14335 15.4669 4.60529 15.6794 4.08805 15.5409C3.68377 15.4324 3.31207 15.2901 2.95959 15.1072C3.67763 16.6669 4.91264 18.1094 6.46514 19.1732C6.91508 19.4817 7.10307 20.0566 6.92256 20.5714C6.74178 21.087 6.23683 21.419 5.69102 21.3784C5.09635 21.3343 4.5695 21.2214 4.08458 21.031C4.95509 22.8038 6.34605 23.7792 8.48895 24.152C8.99924 24.2409 9.39658 24.6439 9.47776 25.1547C9.55921 25.6655 9.30633 26.1718 8.84891 26.4145C7.02243 27.3828 5.02612 27.9024 2.61859 28.0298Z" fill="#F4F0EB"/>
</g>
<defs>
<clipPath id="clip0">
<path d="M0 0H35V35H0V0Z" fill="white"/>
</clipPath>
</defs>
</svg>
