<svg width="95" height="95" viewBox="0 0 95 95" fill="none" xmlns="http://www.w3.org/2000/svg">
<path d="M86.1829 12.8293C85.738 12.6138 85.218 12.6184 84.7769 12.842L77.9534 16.3028L72.6134 7.12992C70.7855 3.70376 67.2113 1.57085 63.3282 1.58886H36.94C33.0001 1.59836 29.3502 3.66122 27.3097 7.03177L22.4019 15.0077C21.9483 15.7447 22.1703 16.7092 22.9006 17.1735L40.3153 28.2556C40.569 28.4169 40.8633 28.5024 41.1639 28.5026C41.2953 28.5028 41.4261 28.4862 41.5534 28.4535C41.9759 28.3465 42.3357 28.0698 42.5476 27.6889L49.1969 15.7249L56.4794 29.4984L49.8491 33.4769C49.2669 33.826 48.9721 34.5075 49.1161 35.1709C49.2596 35.834 49.8098 36.3319 50.484 36.4089L74.0462 39.0876C74.1056 39.094 74.1653 39.0971 74.2251 39.0971C74.8318 39.0971 75.3853 38.7504 75.6499 38.2042L86.9173 14.9444C87.2984 14.1574 86.9697 13.2105 86.1829 12.8293ZM40.5956 24.6807L25.9149 15.34L30.0153 8.67806C31.4799 6.25048 34.105 4.7633 36.94 4.75498H43.3677L47.2907 12.6312L40.5956 24.6807ZM73.2894 35.815L55.482 33.7902L59.394 31.4423C60.1142 31.0093 60.3706 30.0893 59.9782 29.3462L46.9757 4.75498H63.3282C66.0779 4.75103 68.6017 6.2764 69.8761 8.71289L75.9681 19.1823C76.391 19.9058 77.3043 20.1744 78.0516 19.795L82.019 17.7844L73.2894 35.815Z" fill="black"/>
<path d="M93.6142 45.9234L88.4974 35.7025C88.1068 34.9202 87.1559 34.603 86.3736 34.9937C86.3421 35.0093 86.3112 35.0261 86.281 35.0439L67.283 46.1261C66.5385 46.5602 66.2783 47.5101 66.6973 48.2633L73.3022 60.1656H58.5788V53.8329C58.5792 52.9586 57.8705 52.2495 56.9962 52.2491C56.55 52.2489 56.1243 52.4371 55.8241 52.7674L39.9925 70.1822C39.4766 70.75 39.4419 71.6059 39.9102 72.2134L55.7418 92.7945C56.2755 93.487 57.2697 93.6156 57.9622 93.0819C58.3508 92.7823 58.5786 92.3196 58.5788 91.8288V87.0793H69.6609C73.5646 87.1755 77.1764 85.0198 78.9446 81.5382L90.0267 62.5498L93.3197 57.2304C95.4497 53.7904 95.5623 49.4697 93.6142 45.9234ZM76.1915 79.9804C74.9716 82.4561 72.4198 83.9927 69.6609 83.913H56.9956C56.1213 83.913 55.4125 84.6218 55.4125 85.4962V87.1743L43.2221 71.3332L55.4125 57.927V61.7487C55.4125 62.623 56.1213 63.3319 56.9956 63.3319H85.9026L76.1915 79.9804ZM90.6204 55.5712L87.7707 60.1624H76.9245L70.215 48.0876L86.4155 38.6345L90.8088 47.4053C92.2269 49.9611 92.1549 53.0835 90.6204 55.5712Z" fill="black"/>
<path d="M37.8519 48.4203L28.353 27.8392C28.0799 27.2443 27.469 26.8786 26.8157 26.9193L1.48514 28.5025C0.612419 28.5567 -0.0511231 29.3079 0.00310018 30.1807C0.0349613 30.6928 0.312806 31.1579 0.748967 31.4282L0.75055 31.4314L8.5777 36.2853L3.35327 46.7469C1.45961 50.1873 1.47049 54.3603 3.38176 57.791L12.1921 73.0052L17.0096 81.35C19.0786 84.8647 22.8372 87.0387 26.9155 87.0795H33.2481C34.1224 87.0795 34.8313 86.3706 34.8313 85.4963V63.3321C34.8313 62.4578 34.1224 61.7489 33.2481 61.7489H21.4203L29.3171 48.0466L35.8461 50.5607C36.6622 50.8744 37.5783 50.4671 37.8919 49.651C38.0453 49.2522 38.0308 48.8083 37.8519 48.4203ZM31.6649 64.9152V83.9132H26.9155C23.9652 83.8847 21.2456 82.3124 19.7485 79.77L15.4027 72.2405L19.8862 64.9152H31.6649ZM29.1905 44.6049C28.463 44.3254 27.6404 44.6167 27.2511 45.2919L13.5567 69.052L6.12222 56.2078C4.75555 53.7108 4.77594 50.685 6.17604 48.2065L12.0638 36.4057C12.4325 35.6723 12.1796 34.7788 11.4812 34.3475L6.63833 31.3522L25.9323 30.1506L33.3415 46.2038L29.1905 44.6049Z" fill="black"/>
</svg>
