<?xml version="1.0" encoding="utf-8"?>
<!-- Generator: Adobe Illustrator 24.0.2, SVG Export Plug-In . SVG Version: 6.00 Build 0)  -->
<svg version="1.1" id="Calque_1" xmlns="http://www.w3.org/2000/svg" xmlns:xlink="http://www.w3.org/1999/xlink" x="0px" y="0px"
	 viewBox="0 0 1366 768" style="enable-background:new 0 0 1366 768;" xml:space="preserve">
<polygon class="st0" points="517.23,313.69 517.06,297.9 518.02,297.9 518.02,284.88 519,284.88 519,274.9 520.02,274.9 
	520.02,265.88 520.98,265.88 520.98,260.88 522,260.88 522,254.88 523,254.88 523,249.9 524,249.9 524,245.86 524.98,245.86 
	524.98,241.88 525.95,241.88 525.95,238.88 527,238.88 527,235.9 527.98,235.9 527.98,233.86 529.02,233.86 529.02,231.88 
	530.04,231.88 530.04,229.76 530.93,229.76 530.93,226.8 532.02,226.8 532.02,225.84 533.02,225.84 533.02,223.8 534.02,223.8 
	534.02,222.84 535,222.84 535,220.88 536.04,220.88 536.04,219.88 537.02,219.88 537.02,217.9 538,217.9 538,216.86 539.02,216.86 
	539.02,215.86 540.02,215.86 540.02,214.8 541.04,214.8 541.04,213.88 543.04,213.88 543.04,212.84 544.06,212.84 544.06,211.88 
	546.04,211.88 546.04,210.84 547.98,210.84 547.98,209.8 550.02,209.8 550.02,208.86 551,208.86 551,207.86 553.06,207.86 
	553.06,206.88 556.02,206.88 556.02,205.9 557.02,205.9 557.02,204.93 560.06,204.93 560.06,203.82 562.04,203.82 562.04,202.86 
	564.98,202.86 564.98,201.86 568.02,201.86 568.02,200.8 570.98,200.8 570.98,199.84 572.98,199.84 572.98,198.86 576.06,198.86 
	576.06,197.88 579,197.88 579,196.8 580.98,196.8 580.98,195.84 584.04,195.84 584.04,194.84 586.04,194.84 586.04,193.82 
	588,193.82 588,192.82 590.98,192.82 590.98,191.86 592.95,191.86 592.95,190.8 595.98,190.8 595.98,189.84 599.02,189.84 
	599.02,188.84 600.98,188.84 600.98,187.93 603.98,187.93 603.98,186.8 606,186.9 606,185.88 609.02,185.88 609.02,184.88 
	611.98,184.88 611.98,183.86 613.95,183.86 613.95,182.88 616.08,182.88 616.08,181.88 617.91,181.88 617.91,180.78 620,180.78 
	620,179.76 620.98,179.76 620.98,178.84 621.98,178.84 621.98,176.93 622.98,176.93 622.98,173.8 623.95,173.8 623.95,171.82 
	625.04,171.82 625.04,168.9 625.98,168.9 625.98,165.86 627.04,165.86 627.04,163.84 628.06,163.84 628.06,161.86 629.1,161.86 
	629.1,157.88 629.98,157.88 629.98,155.88 631.04,155.88 631.04,154.93 631.98,154.93 631.98,153.88 634.95,153.88 634.95,152.86 
	663.95,152.9 663.95,151.9 691,151.86 691,152.82 722.95,152.93 722.95,153.82 732.95,153.8 732.95,154.82 734.98,154.86 
	734.98,155.84 735.98,155.93 735.98,156.86 736.89,156.9 736.89,157.88 738,157.88 738,159.88 739,159.84 739,161.93 739.98,161.86 
	739.98,163.93 741.02,163.9 741.02,166.86 742.04,166.88 742.04,170.88 742.95,170.86 742.95,172.93 744,172.84 744,175.86 
	745.02,175.82 745.02,178.95 745.95,178.88 745.95,179.84 746.93,179.86 746.93,180.99 748,180.97 748,181.84 748.95,181.86 
	748.95,182.84 749.93,182.78 749.93,183.8 752.98,183.86 752.98,184.86 756.04,184.86 756.04,185.86 757.98,185.82 757.98,186.88 
	761.98,186.88 761.98,187.9 765.02,187.93 765.02,188.8 767.95,188.67 767.95,189.93 770.93,189.9 770.93,190.84 774,190.84 
	774,191.88 776.93,191.86 776.93,192.9 779.95,192.86 779.95,193.9 781.93,193.88 781.93,194.86 785.04,194.86 785.04,195.8 
	788.95,195.86 788.95,196.78 790.98,196.82 790.98,197.95 792.95,197.86 792.95,198.9 795.98,198.9 795.98,199.9 798,199.88 
	798,200.88 801.02,200.95 801.02,201.86 803.1,201.86 803.1,202.93 806.04,202.9 806.04,203.9 808.04,203.88 808.04,204.9 
	810.15,204.86 810.15,206.01 811.98,205.88 811.98,206.9 813.08,206.9 813.08,207.84 815.08,207.8 815.08,208.9 816.02,208.86 
	816.02,209.88 817.08,209.88 817.08,210.9 819.02,210.87 819.02,211.87 820,211.87 820,212.89 820.95,212.88 820.95,213.94 
	822.03,213.9 822.03,214.87 823.02,214.89 823.02,215.86 824.05,215.88 824.05,216.87 825.06,216.87 825.06,217.87 825.98,217.88 
	825.98,218.79 825.98,218.88 827.01,218.88 827.01,219.85 827.98,219.87 827.98,220.88 829.01,220.87 829.01,221.89 829.98,221.89 
	829.98,222.89 831.02,222.9 831.02,223.87 832.03,223.88 832.03,225.85 833,225.85 833,226.9 833.98,226.88 833.98,227.86 
	835.04,227.88 835.04,229.85 835.99,229.87 835.99,230.86 837,230.89 837,232.86 838,232.86 838,234.89 839,234.88 839.04,235.93 
	840.01,235.89 840.01,238.87 841.01,238.88 841.01,240.85 842.02,240.86 842.02,243.9 843.02,243.9 843.02,246.88 843.99,246.86 
	844.03,252.88 845.02,252.88 845.02,257.87 846.01,257.88 846.01,263.87 847,263.87 847,270.88 847.99,270.88 847.99,278.87 
	848.98,278.87 848.98,286.87 850,286.87 850,290.87 851,290.86 851,301.87 851.98,301.88 851.98,313.9 852.98,313.9 853,325.86 
	854,325.86 854.01,336.88 855.02,336.88 855,348.85 856,348.85 856,357.87 857.01,357.87 857.02,369.89 858.02,369.89 
	858.01,378.87 859.02,378.87 859.01,388.89 860,388.89 859.99,394.86 860.99,394.86 860.99,401.89 862,401.89 861.98,405.88 
	862.97,405.88 862.97,410.85 864.02,410.85 864.02,416.83 864.98,416.83 864.98,421.97 865.95,421.97 865.95,427.86 867.08,427.86 
	867.08,431.88 868.02,431.88 868.02,436.89 869.01,436.89 869.01,441.9 870.03,441.9 870.03,445.89 871.04,445.89 871.04,451.82 
	872.05,451.82 872.05,457.87 873.05,457.87 873.05,461.83 874.07,461.83 874.07,467.83 874.97,467.83 874.97,474.9 876.02,474.9 
	876.02,482.83 877.07,482.83 877.07,491.77 878.05,491.77 878.03,518.89 877.01,518.89 877.02,529.87 876,529.87 876.02,536.85 
	875.01,536.85 875.03,544.82 874.02,544.82 874.04,551.88 873.02,551.88 873,555.9 871.98,555.9 872.01,563.94 870.99,563.94 
	871.06,588.9 869.97,588.9 870.02,598.92 869,598.92 869,599.86 863,599.86 863,598.86 858.94,598.89 859.01,597.87 851,597.85 
	850.97,596.86 848.99,596.86 848.97,597.9 840,597.87 840,598.87 836.03,598.9 836,599.86 831.96,599.86 832.02,600.87 
	827.95,600.87 827.99,599.88 828,598.86 827,598.87 827,596.85 826.04,596.88 825.94,582.87 824.97,582.9 825.02,576.88 824,576.88 
	824.02,565.84 822.83,565.84 823.08,555.8 822.15,555.97 821.98,554.01 820.87,553.93 820.78,550.69 820.1,550.61 819.93,542.86 
	818.83,542.86 818.74,537.84 817.81,537.93 817.98,533.76 817.13,533.67 817.13,528.9 815.99,528.9 815.99,522.85 814.98,522.89 
	815,517.86 814.01,517.87 814.01,513.88 813,513.86 813.01,511.89 812.01,511.87 811.99,507.88 811,507.89 811,503.88 
	809.98,503.87 809.99,499.87 808.99,499.88 809,492.86 807.99,492.88 808.02,485.9 807,485.89 807,477.89 805.99,477.87 
	805.98,466.87 804.98,466.86 804.99,454.87 803.99,454.87 804,443.87 803,443.88 803,430.87 801.98,430.88 802,424.88 801,424.88 
	800.99,411.88 799.99,411.89 800,402.86 798.99,402.86 798.99,395.88 798.02,395.88 797.98,388.87 796.99,388.9 796.99,381.87 
	796,381.87 796.02,372.87 795,372.89 795,364.9 794,364.89 793.99,348.89 792.98,348.87 792.98,344.88 791,344.89 791,348.88 
	789.99,348.89 789.99,353.9 789,353.89 788.99,358.87 788,358.87 787.99,365.87 786.98,365.88 786.98,411.9 787.99,411.89 
	788,432.86 788.99,432.89 789,449.9 789.99,449.93 790.02,462.88 791,462.9 791.01,470.86 792.02,470.88 792.01,480.88 793,480.86 
	793.01,488.88 794,488.88 794.01,494.87 795.02,494.89 795,502.88 796,502.88 796.01,508.85 796.94,508.86 797,514.87 
	798.02,514.87 798.02,519.87 799.03,519.86 799.03,523.86 800.02,523.87 800.03,526.87 801.02,526.88 801.02,531.88 802.01,531.88 
	802.02,535.89 803.03,535.89 803.02,539.85 804.02,539.84 804.02,543.86 804.99,543.88 804.99,547.9 806.02,547.88 806.02,550.88 
	807.01,550.88 807.03,553.89 808.03,553.85 808.01,557.86 809.03,557.86 809.02,560.88 810.03,560.89 810.03,563.9 811.01,563.86 
	811.02,570.87 810.02,570.88 810.03,572.88 809,572.89 809.02,573.89 808.01,573.88 808,574.9 806.97,574.88 807,575.89 806,575.89 
	806.02,577.87 804.97,577.88 804.99,578.87 804,578.89 804,580.87 803,580.87 803,581.87 802,581.88 802,583.89 801.01,583.87 
	800.99,584.88 800.01,584.88 800,586.9 798.91,586.87 799.01,591.82 798.05,591.82 798.11,594.82 797.03,594.85 797,596.86 
	796.04,596.86 796.01,598.87 794.99,598.84 795.02,599.96 793.04,599.93 793.1,600.87 792.05,600.87 792.05,601.9 791,601.9 
	790.93,602.99 788.99,602.99 788.95,603.91 787.07,603.91 787.04,604.87 782.92,604.87 782.92,605.86 779.95,605.86 779.92,606.91 
	774.05,606.91 773.99,607.81 747.94,607.81 747.98,606.79 723.91,606.91 723.94,607.81 709.97,607.81 710.06,609.05 698.06,609.05 
	697.98,610.18 681.13,610.18 681.04,611.12 663.85,611.12 663.76,609.84 644.1,609.93 644.1,611.12 635.51,611.12 635.34,612.14 
	629.64,612.14 629.13,613.41 626.49,613.41 623.93,614.61 621.47,614.61 614.91,614.61 614.83,616.14 595.93,616.14 596.02,615.03 
	592.02,614.95 591.93,613.84 587.93,613.76 587.93,612.65 585.21,612.9 585.21,611.88 583,611.8 583,610.78 581.04,610.86 
	580.95,609.84 578.83,609.76 578.91,609.07 577.98,608.65 577.89,607.88 576.95,607.8 576.95,606.86 575.93,606.86 575.85,605.76 
	574.23,605.41 558.91,581.67 558.91,568.73 560.1,568.99 559.93,564.9 561.21,564.9 561.04,560.9 561.81,560.99 561.98,555.88 
	563.08,555.88 562.91,551.8 563.93,551.97 563.93,546.86 564.95,546.95 564.95,542.01 565.72,542.1 565.81,537.84 567.17,538.01 
	567,531.97 567.93,531.71 568.02,526.18 570.91,505.67 575.08,479.71 577.72,459.03 579.93,432.82 579.93,398.61 579.08,389.67 
	577.98,381.76 577.04,377.84 575.85,370.44 574.83,363.29 573.89,356.73 572.95,352.65 572.1,356.73 565.81,397.93 564.1,440.82 
	562.06,459.97 560.02,469.67 558.06,481.07 557.04,490.69 556.02,510.86 553.04,537.07 551,551.97 549.98,558.52 549.13,575.8 
	548.1,580.73 547.17,590.69 545.98,592.73 534.66,592.99 505.47,594.78 501.89,592.9 500.02,574.61 492.95,551.97 489.98,534.86 
	488.95,521.93 488.95,480.22 490.83,467.8 493.89,455.8 498.91,439.8 499.93,427.97 500.87,410.95 503.93,378.86 511.85,336.73 
	514.91,319.71 516.02,313.93 "/>
</svg>
