<?xml version="1.0" encoding="utf-8"?>
<!-- Generator: Adobe Illustrator 24.0.2, SVG Export Plug-In . SVG Version: 6.00 Build 0)  -->
<svg version="1.1" xmlns="http://www.w3.org/2000/svg" xmlns:xlink="http://www.w3.org/1999/xlink" x="0px" y="0px"
	 viewBox="0 0 612 792" style="enable-background:new 0 0 612 792;" xml:space="preserve">
<style type="text/css">
	.st0{display:none;}
	.st1{fill:#FFFFFF;}
</style>
<g id="Calque_2" class="st0">
	<path class="st1" d="M128.35,314.98l-0.17-15.9h0.97v-13.12h0.99v-10.05h1.03v-9.09h0.97v-5.04h1.03v-6.04h1.01v-5.01h1.01v-4.07
		h0.99v-4.01h0.99v-3.02h1.05v-3h0.99v-2.06h1.05v-1.99h1.03v-2.14h0.9v-2.98h1.1v-0.96h1.01v-2.06h1.01v-0.96h0.99v-1.97h1.05
		v-1.01h0.99v-1.99h0.99v-1.05h1.03v-1.01h1.01v-1.07h1.03v-0.92h2.02v-1.05h1.03v-0.96h2v-1.05h1.96v-1.05h2.06v-0.94h0.99v-1.01
		h2.09v-0.99h2.99v-0.99h1.01v-0.99h3.08v-1.11h2v-0.96h2.97v-1.01h3.08v-1.07h2.99v-0.96h2.02v-0.99h3.12v-0.99h2.97v-1.09h2v-0.96
		h3.1v-1.01h2.02v-1.03h1.98v-1.01h3.01v-0.96h2v-1.07h3.05v-0.96h3.08v-1.01h1.98v-0.92h3.03v-1.14l2.04,0.11v-1.03h3.05v-1.01
		h2.99v-1.03h2v-0.99h2.15v-1.01h1.85v-1.11h2.11v-1.03h0.99v-0.92h1.01v-1.93h1.01v-3.15h0.99v-1.99h1.1v-2.94h0.95v-3.06h1.08
		v-2.04h1.03v-1.99h1.05v-4.01h0.88v-2.01h1.08v-0.96h0.95v-1.05h3.01v-1.03l29.31,0.04v-1.01l27.33-0.04v0.96l32.3,0.11v0.9
		l10.11-0.02v1.03l2.04,0.04v0.99l1.01,0.09v0.94l0.92,0.04v0.99h1.12v2.01l1.01-0.04v2.1l0.99-0.06v2.08l1.05-0.02v2.98l1.03,0.02
		v4.03l0.92-0.02v2.08l1.05-0.09v3.04l1.03-0.04v3.15l0.95-0.06v0.96l0.99,0.02v1.14l1.08-0.02v0.88l0.97,0.02v0.99l0.99-0.06v1.03
		l3.08,0.06v1.01h3.1v1.01l1.96-0.04v1.07h4.04v1.03l3.08,0.02v0.88l2.97-0.13v1.26l3.01-0.02v0.94h3.1v1.05l2.97-0.02v1.05
		l3.05-0.04v1.05l2-0.02v0.99h3.14v0.94l3.96,0.06v0.92l2.04,0.04v1.14l2-0.09v1.05h3.05v1.01l2.04-0.02v1.01l3.05,0.06v0.92h2.11
		v1.07l2.97-0.02v1.01l2.02-0.02v1.03l2.13-0.04v1.16l1.85-0.13v1.03h1.12v0.94l2.02-0.04v1.11l0.95-0.04v1.03h1.08v1.03l1.96-0.03
		v1.01h0.99v1.03l0.97-0.01v1.06l1.09-0.03v0.98l1,0.02v0.98l1.04,0.02v1h1.02v1.01l0.92,0.01v0.91v0.1h1.04v0.98l0.98,0.02v1.02
		l1.04-0.01v1.03h0.98v1.01l1.05,0.01v0.98l1.02,0.01v1.98h0.98v1.06l0.99-0.02v0.99l1.08,0.02v1.98l0.96,0.02v1l1.02,0.03v1.98
		h1.01v2.05l1.01-0.01l0.04,1.05l0.98-0.03v3l1.01,0.01v1.98l1.02,0.01v3.06h1.01v3l0.98-0.02l0.04,6.06h1v5.03l1,0.01v6.03h1v7.06
		h1v8.05h1v8.06h1.03V292l1.01-0.01v11.09l0.99,0.01v12.11h1.01l0.02,12.04h1.01l0.01,11.1h1.02l-0.02,12.05h1.01v9.09h1.02
		c-0.46,2.89-1.4,6.75-3.49,10.9c-1.14,2.28-2.4,4.19-3.57,5.74c-3.99,0.9-7.18,1.64-9.65,2.21c-1.69,0.39-4.09,0.93-7.36,1.41
		c-0.12,0.02-0.22,0.03-0.28,0.04c0,0,0,0,0,0c-0.08,0.01-2.55,0.36-5.04,0.56c-7.96,0.64-18.5-0.6-19.91-0.77
		c-4-0.81-8-1.62-12-2.43c-0.45-3.53-0.91-7.06-1.36-10.59l-1.01-0.01l-0.01-16.12l-1.02-0.02v-4.02l-2,0.01v4.02l-1.02,0.01v5.05
		l-1-0.01c0.33,1.93,0.67,3.87,1,5.8c-0.11,1.08-0.23,2.16-0.34,3.23c0.23,1.99,0.45,3.97,0.68,5.96c-0.11,1.19-0.23,2.38-0.34,3.57
		c0.79,12.43,1.59,24.85,2.38,37.28c-0.11,1.36-0.23,2.72-0.34,4.09c0.45,4.99,0.91,9.99,1.36,14.98c0.34,2.04,0.68,4.09,1.02,6.13
		c0.28,3.23,0.57,6.47,0.85,9.7c-0.09,1.87-0.17,3.74-0.26,5.62c0.43,3.91,0.85,7.83,1.28,11.74c0.17,1.28,0.34,2.55,0.51,3.83
		c0.09,1.28,0.17,2.55,0.26,3.83c0,0.94,0,1.87,0,2.81c0.17,2.04,0.34,4.09,0.51,6.13c0.17,0.94,0.34,1.87,0.51,2.81
		c1.74,8.54,3.33,17.63,4.68,27.23c1.33,9.48,2.3,18.55,2.98,27.15c0,0.94,0,1.87,0,2.81c0.17,0.85,0.34,1.7,0.51,2.55
		c0.2,0.76,0.37,1.68,0.43,2.72c0.03,0.55,0.03,1.06,0,1.53c0.17,1.3,0.34,2.61,0.51,3.91c0.23,0.85,0.45,1.7,0.68,2.55
		c0.57,1.13,1.13,2.27,1.7,3.4c0.23,1.25,0.45,2.5,0.68,3.74c0,1.13,0,2.25,0,3.38V567l0.99-0.04l0.01,7.06l-1.01,0.01l0.01,2.01
		l-1.04,0.01l0.02,1.01l-1.02-0.01l-0.01,1.03l-1.04-0.02l0.03,1.02h-1.01l0.02,1.99l-1.06,0.01l0.02,1l-1,0.02v1.99h-1.01v1.01
		l-1.01,0.01v2.03l-1-0.02l-0.02,1.02h-0.99l-0.01,2.04l-1.1-0.03l0.1,4.98h-0.97l0.06,3.02l-1.1,0.03l-0.03,2.03h-0.97l-0.03,2.03
		l-1.03-0.03l0.03,1.13l-2-0.03l0.06,0.95h-1.06v1.04h-1.06l-0.06,1.09h-1.97l-0.03,0.93h-1.9l-0.03,0.96h-4.16v1h-3l-0.03,1.06
		h-5.94l-0.06,0.9h-26.32l0.03-1.03l-24.32,0.13l0.03,0.9h-14.13l0.1,1.25h-12.13l-0.09,1.14h-17.03l-0.09,0.94h-17.38l-0.09-1.29
		l-19.87,0.09v1.2h-8.69l-0.17,1.03h-5.76l-0.52,1.29h-2.67l-2.58,1.2h-2.49h-6.62l-0.09,1.54h-19.1l0.09-1.11l-4.04-0.09
		l-0.09-1.11l-4.04-0.09v-1.11l-2.75,0.26v-1.03l-2.24-0.09v-1.03l-1.98,0.09l-0.09-1.03l-2.15-0.09l0.09-0.69l-0.95-0.43
		l-0.09-0.77l-0.95-0.09v-0.94h-1.03l-0.09-1.11l-1.63-0.34l-15.48-23.92c-0.25-2.15-0.51-4.29-0.76-6.44
		c-0.25-2.1-0.49-4.19-0.74-6.29c0.23-1.25,0.45-2.5,0.68-3.74c-0.06-0.57-0.11-1.13-0.17-1.7c-0.06-0.91-0.11-1.82-0.17-2.72
		c-0.06-0.74-0.11-1.48-0.17-2.21c0.06-1.93,0.11-3.86,0.17-5.79c0.17-2.55,0.34-5.11,0.51-7.66c0.34-2.21,0.68-4.43,1.02-6.64
		c0.11-1.76,0.23-3.52,0.34-5.28c0.23-2.38,0.45-4.77,0.68-7.15c1.02-4.03,2.04-8.06,3.06-12.09c0.62-11.06,1.25-22.13,1.87-33.19
		c0.51-7.38,1.02-14.75,1.53-22.13c0.68-8.74,1.36-17.48,2.04-26.21c0.4-11.97,0.79-23.94,1.19-35.91c0.34-2.95,0.68-5.9,1.02-8.85
		c0.17-2.55,0.34-5.11,0.51-7.66c0.12-1.85,0.61-2.72,0.51-4.26c-0.14-2.27-1.03-4.07-1.79-5.28c-0.14-1.5-0.28-3.01-0.43-4.51
		c-0.17-3.57-0.34-7.15-0.51-10.72c-0.14-3.72-0.28-7.43-0.43-11.15c-1.05,4.91-2.1,9.82-3.15,14.72
		c-0.54,10.27-0.96,15.41-1.27,15.4c-0.03,0-0.06-0.06-0.09-0.16c0.03,1.9,0.06,3.8,0.09,5.7c-4.68,0.71-9.36,1.42-14.04,2.13
		c-6.47-0.23-12.94-0.45-19.4-0.68c-3.52-0.34-7.04-0.68-10.55-1.02c-2.38-0.57-4.77-1.13-7.15-1.7c-1.22,0.26-3.75,0.62-6.13-0.68
		c0,0-1.8-0.98-3.06-3.06c-2.22-3.65,0.63-19.33,7.2-39.77l3.1-17.14C126.78,319.02,127.57,317,128.35,314.98z"/>
</g>
</svg>
