<svg xmlns="http://www.w3.org/2000/svg" viewBox="0 0 389.09 464.28"><title>Fichier 1</title><g id="Calque_2" data-name="Calque 2"><g id="Calque_1-2" data-name="Calque 1"><polygon class="cls-1" points="28.28 161.83 28.11 146.04 29.06 146.04 29.06 133.02 30.04 133.02 30.04 123.04 31.06 123.04 31.06 114.02 32.02 114.02 32.02 109.02 33.04 109.02 33.04 103.02 34.04 103.02 34.04 98.04 35.04 98.04 35.04 94 36.02 94 36.02 90.02 37 90.02 37 87.02 38.04 87.02 38.04 84.04 39.02 84.04 39.02 82 40.06 82 40.06 80.02 41.09 80.02 41.09 77.89 41.98 77.89 41.98 74.94 43.06 74.94 43.06 73.98 44.06 73.98 44.06 71.94 45.06 71.94 45.06 70.98 46.04 70.98 46.04 69.02 47.09 69.02 47.09 68.02 48.06 68.02 48.06 66.04 49.04 66.04 49.04 65 50.06 65 50.06 64 51.06 64 51.06 62.94 52.09 62.94 52.09 62.02 54.09 62.02 54.09 60.98 55.11 60.98 55.11 60.02 57.09 60.02 57.09 58.98 59.02 58.98 59.02 57.94 61.06 57.94 61.06 57 62.04 57 62.04 56 64.11 56 64.11 55.02 67.06 55.02 67.06 54.04 68.06 54.04 68.06 53.06 71.11 53.06 71.11 51.96 73.08 51.96 73.08 51 76.02 51 76.02 50 79.06 50 79.06 48.94 82.02 48.94 82.02 47.98 84.02 47.98 84.02 47 87.11 47 87.11 46.02 90.04 46.02 90.04 44.94 92.02 44.94 92.02 43.98 95.08 43.98 95.08 42.98 97.08 42.98 97.08 41.96 99.04 41.96 99.04 40.96 102.02 40.96 102.02 40 104 40 104 38.94 107.02 38.94 107.02 37.98 110.06 37.98 110.06 36.98 112.02 36.98 112.02 36.06 115.02 36.06 115.02 34.94 117.04 35.04 117.04 34.02 120.06 34.02 120.06 33.02 123.02 33.02 123.02 32 125 32 125 31.02 127.13 31.02 127.13 30.02 128.96 30.02 128.96 28.91 131.04 28.91 131.04 27.89 132.02 27.89 132.02 26.98 133.02 26.98 133.02 25.06 134.02 25.06 134.02 21.94 135 21.94 135 19.96 136.09 19.96 136.09 17.04 137.02 17.04 137.02 14 138.09 14 138.09 11.98 139.11 11.98 139.11 10 140.15 10 140.15 6.02 141.02 6.02 141.02 4.02 142.09 4.02 142.09 3.06 143.02 3.06 143.02 2.02 146 2.02 146 1 175 1.04 175 0.04 202.04 0 202.04 0.96 234 1.06 234 1.96 244 1.94 244 2.96 246.02 3 246.02 3.98 247.02 4.06 247.02 5 247.94 5.04 247.94 6.02 249.04 6.02 249.04 8.02 250.04 7.98 250.04 10.06 251.02 10 251.02 12.06 252.06 12.04 252.06 15 253.09 15.02 253.09 19.02 254 19 254 21.06 255.04 20.98 255.04 24 256.06 23.96 256.06 27.09 257 27.02 257 27.98 257.98 28 257.98 29.13 259.04 29.11 259.04 29.98 260 30 260 30.98 260.98 30.91 260.98 31.94 264.02 32 264.02 33 267.08 33 267.08 34 269.02 33.96 269.02 35.02 273.02 35.02 273.02 36.04 276.06 36.06 276.06 36.94 279 36.81 279 38.06 281.98 38.04 281.98 38.98 285.04 38.98 285.04 40.02 287.98 40 287.98 41.04 291 41 291 42.04 292.98 42.02 292.98 43 296.08 43 296.08 43.94 300 44 300 44.91 302.02 44.96 302.02 46.09 304 46 304 47.04 307.02 47.04 307.02 48.04 309.04 48.02 309.04 49.02 312.06 49.09 312.06 50 314.15 50 314.15 51.06 317.08 51.04 317.08 52.04 319.08 52.02 319.08 53.04 321.19 53 321.19 54.15 323.02 54.02 323.02 55.04 324.13 55.04 324.13 55.98 326.13 55.94 326.13 57.04 327.06 57 327.06 58.02 328.13 58.02 328.13 59.04 330.06 59.01 330.06 60.01 331.04 60.01 331.04 61.03 332 61.02 332 62.07 333.07 62.04 333.07 63.01 334.06 63.03 334.06 64 335.1 64.02 335.1 65.01 336.11 65.01 336.11 66.01 337.02 66.02 337.02 66.93 337.02 67.02 338.05 67.02 338.05 67.99 339.02 68.01 339.02 69.02 340.05 69.01 340.05 70.03 341.02 70.03 341.02 71.03 342.06 71.04 342.06 72.01 343.07 72.02 343.07 73.99 344.04 73.99 344.04 75.04 345.02 75.02 345.02 76 346.08 76.02 346.08 77.99 347.03 78.01 347.03 79 348.04 79.03 348.04 81 349.04 81 349.04 83.03 350.04 83.02 350.08 84.06 351.05 84.03 351.05 87.01 352.05 87.02 352.05 88.99 353.06 89 353.06 92.04 354.06 92.04 354.06 95.02 355.03 95 355.07 101.02 356.06 101.02 356.06 106.01 357.05 106.02 357.05 112.01 358.04 112.01 358.04 119.02 359.03 119.02 359.03 127.01 360.02 127.01 360.02 135.01 361.04 135.01 361.04 139.01 362.04 139 362.04 150.01 363.02 150.02 363.02 162.04 364.02 162.04 364.04 174 365.04 174 365.05 185.02 366.06 185.02 366.04 196.99 367.04 196.99 367.04 206.01 368.05 206.01 368.06 218.03 369.06 218.03 369.05 227.01 370.06 227.01 370.05 237.03 371.04 237.03 371.03 243 372.03 243 372.03 250.03 373.04 250.03 373.02 254.02 374.01 254.02 374.01 258.98 375.06 258.98 375.06 264.97 376.02 264.97 376.02 270.11 377 270.11 377 276 378.13 276 378.13 280.02 379.07 280.02 379.07 285.03 380.06 285.03 380.06 290.04 381.08 290.04 381.08 294.03 382.08 294.03 382.08 299.96 383.09 299.96 383.09 306.01 384.1 306.01 384.1 309.97 385.12 309.97 385.12 315.97 386.01 315.97 386.01 323.04 387.06 323.04 387.06 330.97 388.12 330.97 388.12 339.9 389.09 339.9 389.07 367.03 388.05 367.03 388.07 378.01 387.05 378.01 387.06 384.98 386.06 384.98 386.07 392.96 385.07 392.96 385.08 400.02 384.06 400.02 384.05 404.04 383.03 404.04 383.06 412.08 382.04 412.08 382.1 437.04 381.02 437.04 381.06 447.06 380.04 447.06 380.04 448 374.04 448 374.04 447 369.99 447.03 370.05 446 362.04 445.99 362.01 445 360.03 445 360.02 446.04 351.05 446 351.05 447.01 347.07 447.04 347.04 448 343 448 343.07 449 339 449 339.03 448.02 339.05 447 338.04 447.01 338.04 444.98 337.08 445.02 336.99 431 336.02 431.04 336.06 425.02 335.04 425.02 335.06 413.98 333.87 413.98 334.13 403.94 333.19 404.11 333.02 402.15 331.92 402.06 331.83 398.83 331.15 398.75 330.98 391 329.87 391 329.79 385.98 328.85 386.06 329.02 381.89 328.17 381.81 328.17 377.04 327.03 377.04 327.03 370.99 326.02 371.03 326.04 366 325.05 366.01 325.05 362.02 324.04 362 324.05 360.03 323.05 360.01 323.03 356.02 322.04 356.03 322.04 352.02 321.02 352.01 321.03 348.01 320.03 348.02 320.04 341 319.03 341.02 319.06 334.04 318.04 334.03 318.04 326.03 317.03 326.01 317.02 315.01 316.02 315 316.03 303.01 315.03 303.01 315.04 292.01 314.04 292.02 314.04 279.01 313.02 279.02 313.04 273.02 312.04 273.02 312.03 260.02 311.03 260.03 311.04 251 310.03 251 310.03 244.02 309.06 244.02 309.02 237.01 308.03 237.04 308.03 230.01 307.04 230.01 307.06 221.01 306.04 221.03 306.04 213.04 305.04 213.03 305.03 197.03 304.02 197.01 304.02 193.02 302.04 193.03 302.04 197.02 301.03 197.03 301.03 202.04 300.04 202.03 300.03 207.01 299.04 207.01 299.03 214.01 298.02 214.02 298.02 260.04 299.03 260.03 299.04 281 300.03 281.03 300.04 298.04 301.03 298.06 301.06 311.02 302.04 311.04 302.05 319 303.06 319.02 303.05 329.02 304.04 329 304.05 337.02 305.04 337.02 305.05 343.01 306.06 343.03 306.04 351.02 307.04 351.02 307.05 356.99 307.99 357 308.04 363.01 309.06 363.01 309.06 368.01 310.07 368 310.07 372 311.06 372.01 311.07 375.01 312.06 375.02 312.06 380.02 313.05 380.02 313.06 384.03 314.07 384.03 314.06 387.99 315.06 387.98 315.06 392 316.03 392.02 316.03 396.04 317.06 396.02 317.06 399.02 318.05 399.02 318.07 402.03 319.07 401.99 319.05 406 320.07 406 320.06 409.02 321.07 409.03 321.07 412.04 322.05 412 322.06 419.01 321.06 419.02 321.07 421.02 320.04 421.03 320.06 422.03 319.05 422.02 319.04 423.04 318.01 423.02 318.04 424.03 317.04 424.03 317.06 426.01 316.01 426.02 316.03 427.01 315.04 427.03 315.04 429.01 314.04 429.01 314.04 430.01 313.04 430.02 313.04 432.03 312.05 432.01 312.03 433.02 311.05 433.02 311.04 435.04 309.96 435.01 310.05 439.96 309.1 439.96 309.16 442.96 308.07 442.99 308.04 445 307.08 445 307.05 447.01 306.03 446.98 306.06 448.1 304.08 448.06 304.15 449 303.1 449 303.1 450.04 302.04 450.04 301.98 451.13 300.03 451.13 300 452.05 298.12 452.05 298.08 453.01 293.97 453.01 293.97 454 291 454 290.97 455.05 285.1 455.05 285.03 455.95 258.99 455.95 259.02 454.93 234.96 455.05 234.99 455.95 221.01 455.95 221.11 457.19 209.11 457.19 209.02 458.32 192.17 458.32 192.09 459.25 174.89 459.25 174.81 457.98 155.15 458.06 155.15 459.25 146.55 459.25 146.38 460.28 140.68 460.28 140.17 461.55 137.53 461.55 134.98 462.75 132.51 462.75 125.96 462.75 125.87 464.28 106.98 464.28 107.06 463.17 103.06 463.08 102.98 461.98 98.98 461.89 98.98 460.79 96.25 461.04 96.25 460.02 94.04 459.94 94.04 458.92 92.08 459 92 457.98 89.87 457.89 89.96 457.21 89.02 456.79 88.94 456.02 88 455.94 88 455 86.98 455 86.89 453.89 85.28 453.55 69.96 429.81 69.96 416.87 71.15 417.13 70.98 413.04 72.25 413.04 72.08 409.04 72.85 409.13 73.02 404.02 74.13 404.02 73.96 399.94 74.98 400.11 74.98 395 76 395.08 76 390.15 76.77 390.23 76.85 385.98 78.21 386.15 78.04 380.11 78.98 379.85 79.06 374.32 81.96 353.81 86.13 327.85 88.77 307.17 90.98 280.96 90.98 246.75 90.13 237.81 89.02 229.89 88.08 225.98 86.89 218.57 85.87 211.43 84.94 204.87 84 200.79 83.15 204.87 76.85 246.06 75.15 288.96 73.11 308.11 71.06 317.81 69.11 329.21 68.08 338.83 67.06 359 64.08 385.21 62.04 400.11 61.02 406.66 60.17 423.94 59.15 428.87 58.21 438.83 57.02 440.87 45.7 441.13 16.51 442.92 12.94 441.04 11.06 422.75 4 400.11 1.02 383 0 370.06 0 328.36 1.87 315.94 4.94 303.94 9.96 287.94 10.98 276.11 11.91 259.08 14.98 227 22.89 184.87 25.96 167.85 27.06 162.06 28.28 161.83"/></g></g></svg>