<svg width="95" height="95" viewBox="0 0 95 95" fill="none" xmlns="http://www.w3.org/2000/svg">
<path d="M47.1832 92.9045C43.8738 92.9045 40.5662 92.2375 37.5031 90.9052L22.8564 84.5381C17.5575 82.2332 11.9548 80.7734 6.20417 80.1985L1.39426 79.7176C0.602353 79.6387 7.62939e-06 78.9726 7.62939e-06 78.1771V63.0893C7.62939e-06 62.7544 0.108961 62.4285 0.310039 62.1609C0.669674 61.68 9.2903 50.4179 22.4586 53.3481C29.8648 54.9939 35.8281 58.0738 39.5263 60.3681C42.2111 62.0334 45.3584 62.913 48.6279 62.913H63.2746C65.7992 62.913 68.0181 64.2488 69.2591 66.2525L81.8738 51.7191C84.3195 48.4531 88.3207 46.453 92.5097 46.453H93.4521C93.9757 46.453 94.4628 46.717 94.7481 47.1546C95.0342 47.5921 95.0794 48.1458 94.8694 48.6241L83.4603 74.5533C80.9659 80.2242 75.8867 84.508 69.8747 86.0112L67.8675 86.5125L56.1909 91.1834C53.3173 92.3323 50.2498 92.9045 47.1832 92.9045ZM3.09677 76.7758L6.51243 77.1177C12.5828 77.7245 18.4973 79.2667 24.0921 81.6991L38.7379 88.0662C43.888 90.3055 49.8273 90.3932 55.042 88.3072L66.8143 83.5983C66.8799 83.5726 66.9463 83.5513 67.0145 83.5345L69.1236 83.0065C74.2143 81.7336 78.5149 78.1072 80.6257 73.3061L91.0321 49.6561C88.3676 50.0485 85.9157 51.4844 84.2823 53.6617L70.3079 69.7673C70.3097 69.8276 70.3106 69.8869 70.3106 69.948C70.3106 73.827 67.1544 76.9831 63.2755 76.9831H42.8401C40.1835 76.9831 37.558 77.4091 35.0379 78.2489L34.4692 76.805L33.9882 75.3337L34.0671 75.308C36.8954 74.3655 39.8496 73.8863 42.8401 73.8863H63.2755C65.4466 73.8863 67.2147 72.1191 67.2147 69.9471C67.2147 67.7752 65.4475 66.008 63.2755 66.008H48.6288C44.7817 66.008 41.0702 64.9672 37.8955 62.998C34.4019 60.8305 28.77 57.9224 21.789 56.3696C11.8166 54.1577 4.64073 61.811 3.09766 63.6367V76.7758H3.09677Z" fill="black"/>
<path d="M60.9697 46.103C58.5887 46.103 55.9189 45.3678 52.9798 43.8983C52.6237 43.7193 52.3491 43.4093 52.2145 43.0346C52.0949 42.6989 49.3285 34.7417 53.7248 28.8574C56.9199 24.5798 62.9274 22.6532 71.5905 23.136C72.3807 23.1794 73.0105 23.8127 73.0494 24.6046C73.0804 25.2194 73.7191 39.7297 66.32 44.5609C64.7468 45.5893 62.9593 46.103 60.9697 46.103ZM54.9543 41.4136C59.021 43.3207 62.2719 43.5076 64.6281 41.969C69.0155 39.1034 69.9642 30.5971 69.9872 26.1698C63.1993 26.0042 58.5781 27.534 56.205 30.7096C53.3811 34.4911 54.4786 39.6925 54.9543 41.4136Z" fill="black"/>
<path d="M37.2941 25.8191C34.549 25.8191 31.3822 25.2309 28.6185 23.2068C23.9309 19.7717 21.7766 13.2318 22.2142 3.76968C22.2514 2.97866 22.8785 2.34265 23.6695 2.2957C24.3392 2.25761 40.1898 1.41167 45.5232 9.41755C48.007 13.1441 47.8032 18.0249 44.9199 23.927C44.7445 24.2858 44.4381 24.563 44.0634 24.7003C43.8552 24.7774 40.9489 25.8191 37.2941 25.8191ZM43.5292 23.2476H43.5443H43.5292ZM25.2613 5.34198C25.1276 12.9209 26.8699 18.0869 30.4477 20.7089C34.7314 23.8473 40.5804 22.5133 42.4193 21.9774C44.5231 17.4119 44.7011 13.7668 42.9473 11.1342C39.6875 6.24107 30.1279 5.2844 25.2613 5.34198Z" fill="black"/>
<path d="M49.3843 65.464C49.3356 65.464 49.2869 65.4614 49.2373 65.457C48.4126 65.379 47.7952 64.6659 47.8368 63.8377C47.9281 62.0165 48.084 60.2892 48.2957 58.6522C48.9397 47.6966 48.6075 22.1837 32.477 15.1257C31.694 14.7829 31.3361 13.8705 31.6789 13.0866C32.0208 12.3044 32.9359 11.9474 33.718 12.2893C43.2236 16.4482 49.2036 26.8023 51.008 42.2321C51.1701 43.6148 51.2915 44.9781 51.3818 46.3059C55.6301 35.5709 62.1293 31.7779 62.5164 31.5608C63.2604 31.1401 64.2047 31.4076 64.6246 32.1508C65.0418 32.8949 64.7796 33.8365 64.0382 34.2563C63.8743 34.352 53.9081 40.3329 51.4066 58.7771C51.2162 61.9323 50.9416 63.944 50.9159 64.1282C50.8087 64.9007 50.1488 65.464 49.3843 65.464Z" fill="black"/>
</svg>
