<svg width="35" height="35" viewBox="0 0 35 35" fill="none" xmlns="http://www.w3.org/2000/svg">
<g clip-path="url(#clip0)">
<path d="M19.8584 34.9316H14.2535C13.3173 34.9316 12.5557 34.1701 12.5557 33.2339V20.5917H9.28566C8.34946 20.5917 7.58789 19.8298 7.58789 18.8939V13.4767C7.58789 12.5405 8.34946 11.7789 9.28566 11.7789H12.5557V9.06616C12.5557 6.37638 13.4003 4.08794 14.9979 2.44865C16.6028 0.801888 18.8456 -0.0683594 21.4838 -0.0683594L25.7584 -0.0614167C26.693 -0.0598145 27.4532 0.701752 27.4532 1.63635V6.66611C27.4532 7.60231 26.6919 8.36388 25.756 8.36388L22.878 8.36494C22.0002 8.36494 21.7767 8.54092 21.7289 8.59486C21.6502 8.68431 21.5564 8.93719 21.5564 9.63547V11.7786H25.5397C25.8396 11.7786 26.1301 11.8526 26.3798 11.992C26.9184 12.2929 27.2532 12.862 27.2532 13.4769L27.2511 18.8942C27.2511 19.8298 26.4895 20.5914 25.5533 20.5914H21.5564V33.2339C21.5564 34.1701 20.7946 34.9316 19.8584 34.9316V34.9316ZM14.6075 32.8798H19.5043V19.6731C19.5043 19.048 20.013 18.5395 20.6379 18.5395H25.1992L25.2011 13.8308H20.6376C20.0127 13.8308 19.5043 13.3223 19.5043 12.6972V9.63547C19.5043 8.83385 19.5858 7.92221 20.1908 7.23701C20.922 6.40869 22.0742 6.3131 22.8774 6.3131L25.4014 6.31203V1.9899L21.4822 1.98349C17.2423 1.98349 14.6075 4.69757 14.6075 9.06616V12.6972C14.6075 13.3221 14.0991 13.8308 13.4743 13.8308H9.63974V18.5395H13.4743C14.0991 18.5395 14.6075 19.048 14.6075 19.6731V32.8798ZM25.7544 1.99043H25.7547H25.7544Z" fill="#F4F0EB"/>
</g>
<defs>
<clipPath id="clip0">
<path d="M0 0H35V35H0V0Z" fill="white"/>
</clipPath>
</defs>
</svg>
