<svg width="95" height="95" viewBox="0 0 95 95" fill="none" xmlns="http://www.w3.org/2000/svg">
<g clip-path="url(#clip0)">
<path d="M94.7405 45.8713C93.9433 43.3643 91.1695 41.1464 86.9628 42.2024C86.9519 42.2046 86.9418 42.2075 86.9316 42.2104L86.754 42.2582C86.3184 41.2356 85.7582 40.2912 85.0754 39.4373L63.444 12.3939C61.495 9.94482 58.7205 8.53872 55.8322 8.5351C55.8279 8.5351 55.825 8.5351 55.8206 8.5351C52.941 8.5351 50.173 9.93105 48.2248 12.3663L43.6666 18.0647C43.0266 18.8648 43.1563 20.0325 43.9565 20.6732C44.7567 21.3132 45.9243 21.1834 46.5643 20.3833L51.1225 14.685C52.3808 13.1122 54.0492 12.246 55.8206 12.246H55.8271C57.6065 12.2482 59.2801 13.1216 60.5434 14.7082L82.1777 41.7552C82.5415 42.2104 82.8568 42.7062 83.1221 43.2374L69.72 46.8498C69.043 44.1369 66.4149 42.2872 63.5658 42.6409C62.5648 42.7656 59.1786 43.2469 55.5938 43.7557C52.1771 44.2413 48.6437 44.7436 47.6732 44.8646C45.5445 45.1284 42.72 44.6957 39.7288 44.2377C36.2998 43.7122 32.3895 43.1149 28.4242 43.402C28.788 42.6308 29.2526 41.9292 29.8006 41.3341C29.8296 41.3022 29.8578 41.2696 29.8854 41.2356L37.292 31.9749C37.932 31.1747 37.8023 30.0071 37.0021 29.3671C36.2027 28.7271 35.035 28.8568 34.3943 29.657L27.0261 38.8698C25.7113 40.3129 24.7654 42.0923 24.2494 44.0717C22.6867 44.4776 21.1393 45.0719 19.6317 45.9184C12.2519 50.0628 7.33925 59.33 4.63142 74.2238C1.96854 74.9297 0 77.3599 0 80.2417C0 83.6743 2.79263 86.467 6.22524 86.467H30.0586C33.4912 86.467 36.2838 83.6743 36.2838 80.2417C36.2838 77.6064 34.6371 75.3501 32.3199 74.4434L33.792 68.4435L44.324 68.5602C52.3923 68.6487 54.9538 68.166 62.5742 65.1102C64.7102 64.2535 67.1564 63.2403 70.0541 62.0125C70.9978 61.6124 71.4384 60.523 71.0384 59.5793C70.6383 58.6364 69.5489 58.195 68.606 58.5958C65.7314 59.8142 63.3063 60.8187 61.1928 61.666C54.0086 64.5463 51.9618 64.9327 44.3653 64.8493L32.362 64.7159C32.3547 64.7159 32.3482 64.7159 32.341 64.7159C31.4879 64.7159 30.7435 65.2994 30.5391 66.1293L28.6039 74.0165H8.44601C10.9625 60.7963 15.2243 52.6496 21.4488 49.1539C26.9927 46.0409 33.46 47.0317 39.1671 47.9058C42.4192 48.4045 45.4916 48.8749 48.1306 48.5473C49.133 48.4226 52.5257 47.9406 56.1163 47.4304C59.5272 46.9455 63.0548 46.4446 64.0238 46.3243C65.0704 46.1946 66.0315 46.9346 66.1612 47.9754C66.2025 48.3023 66.3113 49.1699 63.9542 50.2498C58.9727 52.5336 53.6644 54.4891 49.3895 55.6133C48.398 55.8742 47.8066 56.8889 48.0668 57.8797C48.3277 58.8712 49.3424 59.4626 50.3339 59.2024C54.8059 58.0254 60.3346 55.9923 65.5009 53.6237C67.2963 52.8004 68.4001 51.8414 69.051 50.8739L87.8804 45.7981C89.8902 45.2987 90.9151 46.0888 91.2035 46.9962C91.4811 47.8674 91.1282 48.9916 89.717 49.5417C88.5327 49.9882 86.0698 51.0449 82.219 52.7184C81.279 53.1272 80.8477 54.2202 81.2565 55.1595C81.6645 56.0996 82.7575 56.5301 83.6976 56.1221C86.7395 54.8001 89.8112 53.4715 91.0325 53.012C91.039 53.0098 91.0441 53.0076 91.0506 53.0055C94.5325 51.6552 95.5429 48.3951 94.7405 45.8713ZM32.5729 80.2417C32.5729 81.6275 31.4451 82.756 30.0586 82.756H6.22524C4.83871 82.756 3.71094 81.6275 3.71094 80.2417C3.71094 78.8559 4.83799 77.7281 6.22307 77.7274H6.22742H6.23394H30.0528H30.06H30.0644C31.448 77.7303 32.5729 78.8566 32.5729 80.2417Z" fill="black"/>
<path d="M44.3768 38.2938C45.401 38.2938 46.2323 37.4625 46.2323 36.4376C46.2323 35.4128 45.401 34.5822 44.3768 34.5822C43.352 34.5822 42.5214 35.4128 42.5214 36.4376V36.4391C42.5214 37.4639 43.352 38.2938 44.3768 38.2938Z" fill="black"/>
<path d="M53.9325 28.6447C53.9325 27.6199 53.1019 26.7892 52.0771 26.7892C51.0522 26.7892 50.2216 27.6199 50.2216 28.6447V28.6462C50.2216 29.671 51.0522 30.5009 52.0771 30.5009C53.1019 30.5009 53.9325 29.6696 53.9325 28.6447Z" fill="black"/>
<path d="M68.7762 33.5602C68.7762 32.5353 67.9456 31.7047 66.9207 31.7047C65.8966 31.7047 65.0653 32.5353 65.0653 33.5602V33.5616C65.0653 34.5865 65.8966 35.4164 66.9207 35.4164C67.9456 35.4164 68.7762 34.585 68.7762 33.5602Z" fill="black"/>
<path d="M39.3475 26.4913C39.6845 26.7508 40.0824 26.8762 40.4774 26.8762C41.0341 26.8762 41.5842 26.6268 41.9495 26.1521L41.9502 26.1507C42.5757 25.3389 42.4228 24.1741 41.611 23.5494C40.7985 22.9246 39.633 23.0775 39.0083 23.8893C38.3835 24.7018 38.535 25.8665 39.3475 26.4913Z" fill="black"/>
<path d="M75.4197 55.6727C74.4774 56.0764 74.0411 57.1672 74.4448 58.1087C74.7463 58.8125 75.4313 59.2336 76.151 59.2336C76.3945 59.2336 76.6431 59.1857 76.8816 59.0836L76.883 59.0828C77.8246 58.6791 78.2602 57.5883 77.8564 56.6468C77.4527 55.7046 76.3619 55.269 75.4197 55.6727Z" fill="black"/>
</g>
<defs>
<clipPath id="clip0">
<rect width="95" height="95" fill="white"/>
</clipPath>
</defs>
</svg>
